<svg width="200" height="44" viewBox="0 0 200 44" fill="none" xmlns="http://www.w3.org/2000/svg">
    <path
        d="M122.331 20.8942C120.031 19.9792 117.678 19.2276 115.286 18.6446C113.517 18.2326 111.77 17.7195 110.052 17.1075C108.912 16.7022 107.867 16.0396 106.987 15.1644C106.603 14.7695 106.302 14.2915 106.105 13.7625C105.908 13.2334 105.818 12.6653 105.842 12.0962C105.826 11.174 106.051 10.2654 106.49 9.47192C106.929 8.6784 107.566 8.03127 108.33 7.60306C110.058 6.48418 112.342 5.9129 115.126 5.9129C118.067 5.90997 120.988 6.43352 123.767 7.46173C124.097 7.62101 124.451 7.71287 124.813 7.73259C125.182 7.74405 125.548 7.66576 125.885 7.50357C126.221 7.34137 126.519 7.09946 126.755 6.79622C127.213 6.23742 127.466 5.51956 127.465 4.77639C127.498 4.15622 127.335 3.54235 127.003 3.03304C126.67 2.52372 126.188 2.14843 125.633 1.96741C122.085 0.618615 118.341 -0.0453961 114.576 0.00639156C111.866 -0.0673405 109.173 0.49762 106.69 1.66118C104.645 2.62648 102.899 4.19283 101.654 6.17801C100.515 8.06283 99.9179 10.264 99.9369 12.5085C99.9369 15.1643 100.641 17.3255 102.028 18.9331C103.384 20.4924 105.053 21.7008 106.91 22.4664C109.273 23.4057 111.684 24.202 114.13 24.8514C116.332 25.4403 118.054 26.0292 119.243 26.4532C120.304 26.8327 121.284 27.4331 122.127 28.2198C122.478 28.5301 122.759 28.9209 122.95 29.3634C123.14 29.8058 123.235 30.2884 123.228 30.7755C123.228 34.9742 120.245 37.0177 114.108 37.0177C110.46 37.0392 106.848 36.2365 103.509 34.6622C103.123 34.4759 102.704 34.3815 102.281 34.3854C101.915 34.375 101.551 34.4491 101.214 34.6025C100.877 34.7559 100.575 34.9851 100.328 35.2746C99.8863 35.7789 99.622 36.4312 99.5798 37.1206C99.5377 37.81 99.7203 38.4937 100.097 39.0552C100.417 39.5603 100.866 39.9567 101.39 40.1976C105.563 42.1065 110.059 43.0767 114.598 43.0478C117.176 43.0986 119.736 42.5856 122.121 41.5403C124.156 40.6541 125.926 39.1901 127.24 37.3062C128.452 35.5093 129.096 33.345 129.078 31.1289C129.078 28.3611 128.406 26.1292 127.075 24.4804C125.796 22.8819 124.166 21.6495 122.331 20.8942Z"
        fill="#707070" />
    <path
        d="M162.588 0.295177C162.198 0.287546 161.811 0.367378 161.452 0.529666C161.093 0.691954 160.769 0.933008 160.503 1.2373C160.23 1.53365 160.015 1.88521 159.87 2.27144C159.725 2.65767 159.654 3.07087 159.661 3.48687V26.8006C159.717 28.8098 159.219 30.7924 158.23 32.5011C157.308 34.0362 155.999 35.2611 154.454 36.0344C152.867 36.8157 151.141 37.2202 149.394 37.2202C147.647 37.2202 145.92 36.8157 144.333 36.0344C142.786 35.2629 141.475 34.0377 140.553 32.5011C139.565 30.7918 139.069 28.8092 139.127 26.8006V3.48687C139.126 2.64085 138.811 1.82993 138.252 1.2317C137.693 0.633465 136.935 0.296734 136.144 0.295177C135.754 0.287912 135.367 0.367976 135.008 0.530241C134.649 0.692507 134.325 0.9333 134.058 1.2373C133.787 1.53461 133.572 1.8863 133.428 2.2723C133.284 2.65831 133.212 3.07109 133.216 3.48687V26.6241C133.103 29.6905 133.851 32.7228 135.364 35.3301C136.876 37.9373 139.084 39.9999 141.703 41.2518C144.119 42.4435 146.747 43.0607 149.408 43.0607C152.068 43.0607 154.696 42.4435 157.112 41.2518C159.731 40.0009 161.939 37.9384 163.451 35.3308C164.963 32.7231 165.709 29.6903 165.593 26.6241V3.48687C165.592 2.64187 165.278 1.83177 164.72 1.23371C164.162 0.635646 163.406 0.298288 162.616 0.295177H162.588Z"
        fill="#707070" />
    <path
        d="M197.475 24.5158C196.203 22.9184 194.581 21.684 192.753 20.9236C190.454 20.0085 188.1 19.2572 185.709 18.6741C183.94 18.2622 182.192 17.7491 180.475 17.1371C179.335 16.7317 178.289 16.069 177.409 15.1937C177.026 14.7984 176.726 14.3205 176.529 13.7916C176.331 13.2626 176.241 12.6947 176.265 12.1257C176.249 11.2035 176.473 10.2948 176.912 9.50132C177.352 8.70779 177.989 8.06081 178.752 7.6326C180.48 6.51372 182.764 5.94244 185.549 5.94244C188.49 5.93951 191.41 6.46306 194.189 7.49127C194.519 7.65056 194.874 7.74241 195.235 7.76213C195.604 7.77359 195.971 7.6953 196.307 7.53311C196.644 7.37091 196.941 7.129 197.178 6.82576C197.636 6.26696 197.888 5.5491 197.888 4.80593C197.92 4.18576 197.757 3.57175 197.425 3.06244C197.093 2.55312 196.61 2.17797 196.055 1.99696C192.507 0.648156 188.764 -0.0158551 184.999 0.0359326C182.288 -0.0377994 179.596 0.527162 177.112 1.69073C175.068 2.65602 173.322 4.22223 172.077 6.2074C170.937 8.09223 170.34 10.2934 170.359 12.5379C170.359 15.1937 171.064 17.355 172.451 18.9627C173.806 20.5219 175.475 21.7303 177.332 22.496C179.695 23.4353 182.106 24.2316 184.553 24.881C186.754 25.4699 188.477 26.0587 189.666 26.4827C190.726 26.8622 191.707 27.4626 192.549 28.2494C192.9 28.5596 193.182 28.9505 193.372 29.3929C193.563 29.8353 193.658 30.3179 193.65 30.805C193.65 35.0037 190.667 37.0472 184.531 37.0472C180.882 37.0687 177.27 36.2661 173.931 34.6917C173.546 34.5055 173.127 34.4111 172.704 34.4149C172.338 34.4045 171.974 34.4785 171.637 34.6319C171.299 34.7853 170.997 35.0147 170.75 35.3042C170.309 35.8084 170.045 36.4608 170.002 37.1502C169.96 37.8396 170.143 38.5233 170.519 39.0847C170.839 39.5898 171.288 39.9862 171.812 40.2271C175.986 42.1361 180.482 43.1063 185.021 43.0774C187.598 43.1282 190.158 42.6152 192.544 41.5698C194.579 40.6837 196.348 39.2196 197.662 37.3358C198.874 35.5388 199.518 33.3745 199.5 31.1584C199.478 28.3671 198.807 26.1352 197.475 24.5158Z"
        fill="#707070" />
    <path
        d="M66.5474 4.99444C66.687 4.58503 66.7578 4.1523 66.7565 3.71647C66.7895 2.78458 66.4769 1.87646 65.8869 1.19014C65.5803 0.859133 65.2123 0.600715 64.8066 0.431323C64.4009 0.261931 63.9664 0.185374 63.5314 0.206754C62.8647 0.202044 62.2151 0.431756 61.6823 0.860477C61.1489 1.28374 60.7325 1.85337 60.4771 2.50923L48.6281 34.1205L36.7901 2.52692C36.5367 1.87146 36.1221 1.30178 35.5904 0.87816C35.0551 0.450161 34.4039 0.220606 33.7357 0.224438C33.3007 0.204155 32.8665 0.281115 32.461 0.450444C32.0554 0.619774 31.6873 0.877707 31.3802 1.20782C30.7901 1.89414 30.4775 2.80226 30.5106 3.73415C30.5084 4.17058 30.5812 4.60368 30.7253 5.01198L43.9722 39.3969V39.4264C45.0728 42.0292 46.7954 42.5768 48.0392 42.5768H49.2168C50.4606 42.5768 52.1723 42.0292 53.284 39.4264L66.5364 5.04145L66.5474 4.99444Z"
        fill="#D2202C" />
    <path
        d="M97.0639 37.7656L83.8115 3.38082V3.35135C82.7108 0.748488 80.9883 0.206665 79.75 0.206665H78.5667C77.3284 0.206665 75.6114 0.748488 74.5052 3.35135L61.2528 37.7361V37.7656C61.1087 38.1759 61.036 38.611 61.0382 39.0493C61.0215 39.5104 61.0901 39.9705 61.2403 40.403C61.3905 40.8356 61.6192 41.2322 61.9132 41.5697C62.2195 41.9015 62.5874 42.161 62.9931 42.3314C63.3988 42.5018 63.8333 42.5793 64.2687 42.559C64.9359 42.5616 65.5856 42.33 66.1179 41.8995C66.6498 41.4746 67.0658 40.9053 67.3231 40.2506L79.1721 8.6395L86.2826 27.625L91.0101 40.233C91.0776 40.3979 91.1529 40.5591 91.2357 40.7159C91.4838 41.1758 91.8172 41.5766 92.2153 41.8937C92.7486 42.3222 93.3976 42.5536 94.0645 42.5531C94.5007 42.5727 94.9358 42.495 95.3423 42.3247C95.7488 42.1543 96.1177 41.8952 96.4254 41.5638C96.7184 41.2258 96.9461 40.8291 97.0953 40.3966C97.2446 39.964 97.3125 39.5041 97.295 39.0434C97.2918 38.6059 97.2135 38.1728 97.0639 37.7656Z"
        fill="#D2202C" />
    <path
        d="M36.0249 37.7656L22.7781 3.38082V3.35135C21.6774 0.748488 19.9548 0.206665 18.711 0.206665H17.5333C16.2896 0.206665 14.578 0.748488 13.4663 3.35135L0.213882 37.7361V37.7656C0.0737066 38.1769 0.00289428 38.6115 0.00474793 39.0493C-0.0186004 39.5123 0.0443322 39.9757 0.189832 40.4124C0.335331 40.8491 0.560515 41.2505 0.852304 41.5933C1.1592 41.9242 1.52716 42.1831 1.93271 42.3534C2.33825 42.5238 2.7725 42.6018 3.2078 42.5826C3.87659 42.5843 4.52768 42.3528 5.06247 41.9231C5.59267 41.4978 6.00686 40.9285 6.26219 40.2742L18.1112 8.66308L25.2217 27.6368L29.9492 40.2565C30.0307 40.4613 30.1282 40.6583 30.2408 40.8454C30.4775 41.2592 30.7858 41.6209 31.1489 41.9113C31.6837 42.341 32.3347 42.5725 33.0035 42.5708C33.4388 42.59 33.8731 42.512 34.2786 42.3416C34.6842 42.1713 35.0521 41.9124 35.359 41.5815C35.6521 41.2435 35.8797 40.8468 36.0289 40.4143C36.1782 39.9817 36.2461 39.5218 36.2286 39.0611C36.2357 38.6195 36.1666 38.1804 36.0249 37.7656Z"
        fill="#D2202C" />
</svg>